<svg width="176" height="32" viewBox="0 0 176 32" fill="none" xmlns="http://www.w3.org/2000/svg">
<path d="M42.9013 27.1572L44.632 22.1999H52.6401L54.3711 27.1572H58.3311L50.5871 5.71458H46.744L39 27.1572H42.9013ZM48.1813 12.1093C48.3867 11.5226 48.5626 10.8773 48.6506 10.4666C48.7093 10.9066 48.9146 11.5519 49.0906 12.1093L51.5551 19.0319H45.7466L48.1813 12.1093Z" fill="#1C2434"/>
<path d="M65.7871 27.5386C67.9871 27.5386 69.8651 26.5706 70.7451 24.8986L70.9791 27.1572H74.2651V5.33325H70.7151V14.5146C69.8061 13.0773 68.0171 12.2266 65.9931 12.2266C61.6221 12.2266 58.9821 15.4533 58.9821 19.9706C58.9821 24.4586 61.5931 27.5386 65.7871 27.5386ZM66.5791 24.2532C64.0861 24.2532 62.5611 22.4346 62.5611 19.8533C62.5611 17.2719 64.0861 15.4239 66.5791 15.4239C69.0731 15.4239 70.6861 17.2426 70.6861 19.8533C70.6861 22.4639 69.0731 24.2532 66.5791 24.2532Z" fill="#1C2434"/>
<path d="M81.5731 27.1572V18.9439C81.5731 16.5973 82.9511 15.4826 84.6531 15.4826C86.3541 15.4826 87.4391 16.5679 87.4391 18.5919V27.1572H91.0181V18.9439C91.0181 16.5679 92.3381 15.4533 94.0691 15.4533C95.7701 15.4533 96.8851 16.5386 96.8851 18.6213V27.1572H100.434V17.6826C100.434 14.3386 98.4981 12.2266 94.9781 12.2266C92.7781 12.2266 91.0771 13.3119 90.3431 14.9839C89.5811 13.3119 88.0551 12.2266 85.8551 12.2266C83.7731 12.2266 82.3061 13.1653 81.5731 14.3679L81.2791 12.6666H77.9941V27.1572H81.5731Z" fill="#1C2434"/>
<path d="M105.736 9.76258C106.91 9.76258 107.878 8.79458 107.878 7.59192C107.878 6.38925 106.91 5.45059 105.736 5.45059C104.504 5.45059 103.536 6.38925 103.536 7.59192C103.536 8.79458 104.504 9.76258 105.736 9.76258ZM103.947 27.1572H107.526V12.6666H103.947V27.1572Z" fill="#1C2434"/>
<path d="M114.802 27.1572V19.3546C114.802 17.0079 116.151 15.4826 118.351 15.4826C120.199 15.4826 121.402 16.6559 121.402 19.0906V27.1572H124.98V18.2399C124.98 14.4853 123.103 12.2266 119.466 12.2266C117.5 12.2266 115.74 13.0773 114.831 14.5439L114.538 12.6666H111.223V27.1572H114.802Z" fill="#1C2434"/>
<path d="M114.802 27.1572V19.3546C114.802 17.0079 116.151 15.4826 118.351 15.4826C120.199 15.4826 121.402 16.6559 121.402 19.0906V27.1572H124.98V18.2399C124.98 14.4853 123.103 12.2266 119.466 12.2266C117.5 12.2266 115.74 13.0773 114.831 14.5439L114.538 12.6666H111.223V27.1572H114.802Z" fill="#1C2434"/>
<path d="M0 8.42105C0 3.77023 3.77023 0 8.42105 0H23.5789C28.2298 0 32 3.77023 32 8.42105V23.5789C32 28.2298 28.2298 32 23.5789 32H8.42105C3.77023 32 0 28.2298 0 23.5789V8.42105Z" fill="#3C50E0"/>
<path d="M0 8.42105C0 3.77023 3.77023 0 8.42105 0H23.5789C28.2298 0 32 3.77023 32 8.42105V23.5789C32 28.2298 28.2298 32 23.5789 32H8.42105C3.77023 32 0 28.2298 0 23.5789V8.42105Z" fill="#3C50E0"/>
<path d="M0 8.42105C0 3.77023 3.77023 0 8.42105 0H23.5789C28.2298 0 32 3.77023 32 8.42105V23.5789C32 28.2298 28.2298 32 23.5789 32H8.42105C3.77023 32 0 28.2298 0 23.5789V8.42105Z" fill="#3C50E0"/>
<path d="M0 8.42105C0 3.77023 3.77023 0 8.42105 0H23.5789C28.2298 0 32 3.77023 32 8.42105V23.5789C32 28.2298 28.2298 32 23.5789 32H8.42105C3.77023 32 0 28.2298 0 23.5789V8.42105Z" fill="#3C50E0"/>
<g filter="url(#filter0_d_2_32)">
<path d="M8.42139 8.42127C8.42139 7.49111 9.17543 6.73706 10.1056 6.73706C11.0358 6.73706 11.7898 7.49111 11.7898 8.42127V23.5792C11.7898 24.5093 11.0358 25.2634 10.1056 25.2634C9.17543 25.2634 8.42139 24.5093 8.42139 23.5792V8.42127Z" fill="white"/>
</g>
<g opacity="0.9" filter="url(#filter1_d_2_32)">
<path d="M14.7368 15.1576C14.7368 14.2274 15.4909 13.4734 16.421 13.4734C17.3512 13.4734 18.1052 14.2274 18.1052 15.1576V23.5786C18.1052 24.5088 17.3512 25.2629 16.421 25.2629C15.4909 25.2629 14.7368 24.5088 14.7368 23.5786V15.1576Z" fill="white"/>
</g>
<g opacity="0.7" filter="url(#filter2_d_2_32)">
<path d="M21.0522 10.9469C21.0522 10.0167 21.8063 9.2627 22.7365 9.2627C23.6666 9.2627 24.4207 10.0167 24.4207 10.9469V23.5785C24.4207 24.5086 23.6666 25.2627 22.7365 25.2627C21.8063 25.2627 21.0522 24.5086 21.0522 23.5785V10.9469Z" fill="white"/>
</g>
<defs>
<filter id="filter0_d_2_32" x="7.42139" y="6.23706" width="5.36841" height="20.5263" filterUnits="userSpaceOnUse" color-interpolation-filters="sRGB">
<feFlood flood-opacity="0" result="BackgroundImageFix"/>
<feColorMatrix in="SourceAlpha" type="matrix" values="0 0 0 0 0 0 0 0 0 0 0 0 0 0 0 0 0 0 127 0" result="hardAlpha"/>
<feOffset dy="0.5"/>
<feGaussianBlur stdDeviation="0.5"/>
<feComposite in2="hardAlpha" operator="out"/>
<feColorMatrix type="matrix" values="0 0 0 0 0 0 0 0 0 0 0 0 0 0 0 0 0 0 0.12 0"/>
<feBlend mode="normal" in2="BackgroundImageFix" result="effect1_dropShadow_2_32"/>
<feBlend mode="normal" in="SourceGraphic" in2="effect1_dropShadow_2_32" result="shape"/>
</filter>
<filter id="filter1_d_2_32" x="13.7368" y="12.9734" width="5.36841" height="13.7895" filterUnits="userSpaceOnUse" color-interpolation-filters="sRGB">
<feFlood flood-opacity="0" result="BackgroundImageFix"/>
<feColorMatrix in="SourceAlpha" type="matrix" values="0 0 0 0 0 0 0 0 0 0 0 0 0 0 0 0 0 0 127 0" result="hardAlpha"/>
<feOffset dy="0.5"/>
<feGaussianBlur stdDeviation="0.5"/>
<feComposite in2="hardAlpha" operator="out"/>
<feColorMatrix type="matrix" values="0 0 0 0 0 0 0 0 0 0 0 0 0 0 0 0 0 0 0.12 0"/>
<feBlend mode="normal" in2="BackgroundImageFix" result="effect1_dropShadow_2_32"/>
<feBlend mode="normal" in="SourceGraphic" in2="effect1_dropShadow_2_32" result="shape"/>
</filter>
<filter id="filter2_d_2_32" x="20.0522" y="8.7627" width="5.3685" height="18" filterUnits="userSpaceOnUse" color-interpolation-filters="sRGB">
<feFlood flood-opacity="0" result="BackgroundImageFix"/>
<feColorMatrix in="SourceAlpha" type="matrix" values="0 0 0 0 0 0 0 0 0 0 0 0 0 0 0 0 0 0 127 0" result="hardAlpha"/>
<feOffset dy="0.5"/>
<feGaussianBlur stdDeviation="0.5"/>
<feComposite in2="hardAlpha" operator="out"/>
<feColorMatrix type="matrix" values="0 0 0 0 0 0 0 0 0 0 0 0 0 0 0 0 0 0 0.12 0"/>
<feBlend mode="normal" in2="BackgroundImageFix" result="effect1_dropShadow_2_32"/>
<feBlend mode="normal" in="SourceGraphic" in2="effect1_dropShadow_2_32" result="shape"/>
</filter>
</defs>
</svg>
